<?xml version="1.0" encoding="UTF-8" standalone="no"?><!DOCTYPE svg PUBLIC "-//W3C//DTD SVG 1.1//EN" "http://www.w3.org/Graphics/SVG/1.1/DTD/svg11.dtd"><svg width="100%" height="100%" viewBox="0 0 2502 3009" version="1.1" xmlns="http://www.w3.org/2000/svg" xmlns:xlink="http://www.w3.org/1999/xlink" xml:space="preserve" xmlns:serif="http://www.serif.com/" style="fill-rule:evenodd;clip-rule:evenodd;stroke-linejoin:round;stroke-miterlimit:2;"><g id="logo"><path d="M415.89,1892.323c-120.54,-18.139 -164.125,-101.99 -176.749,-125.533c-8.268,-15.419 -44.011,-120.321 -22.02,-193.582c45.222,-150.649 189.277,-174.931 197.773,-190.553c22.234,-40.882 -8.544,-332.205 182.604,-709.862c125.937,-248.818 291.431,-413.629 322.57,-444.639c16.76,-16.691 18.549,-14.558 79.96,-73.684c48.748,-46.934 66.749,-33.959 71.807,-30.313c4.809,3.467 74.415,83.399 85.584,98.16c51.262,67.75 122.268,143.561 276.587,343.058c38.728,50.066 48.954,42.44 257.522,42.488c425.891,0.096 425.917,3.901 435.022,8.087c14.421,6.63 12.74,12.536 12.74,608.959c0,142.441 -9.256,164.352 49.093,173.24c39.018,5.944 102.887,62.265 110.72,69.173c9.085,8.011 102.002,116.449 51.389,258.762c-0.733,2.061 -26.473,96.895 -117.103,147.284c-25.796,14.342 -69.496,17.292 -75.702,17.711c-3.352,0.226 -14.318,7.768 -0.586,10.424c147.156,28.463 232.42,119.815 131.933,212.654c-36.535,33.755 -129.631,73.087 -218.59,69.612c-5.149,-0.201 -10.243,-1.163 -15.381,-1.545c-58.052,-4.316 22.726,10.327 82.448,61.073c30.128,25.601 46.227,29.558 79.952,73.293c19.37,25.12 23.017,21.958 38.999,49.171c9.496,16.168 11.875,14.061 20.643,30.71c38.248,72.63 81.843,125.252 82.448,318.497c0.358,114.28 6.3,115.047 -2.656,138.124c-8.048,20.736 -13.447,25.847 -184.097,22.493c-113.032,-2.221 -259.384,-41.97 -356.77,-131.618c-18.89,-17.389 -20.239,-15.354 -36.004,-35.117c-17.008,-21.323 -19.19,-18.834 -35.739,-40.964c-110.369,-147.59 -82.684,-167.407 -104.475,-187.978c-14.078,-13.29 -43.912,14.879 -163.139,41.617c-158.531,35.554 -253.317,18.357 -333.143,9.826c-7.115,-0.76 -6.199,-4.763 -87.126,-20.236c-33.917,-6.485 -110.017,-43.264 -122.013,-31.014c-14.342,14.646 -52.471,227.833 -303.673,345.759c-102.64,48.184 -229.61,49.814 -250.006,50.075c-24.442,0.314 -33.384,8.255 -71.321,1.301c-20.283,-3.718 -83.529,7.569 -88.493,-23.77c-15.767,-99.553 -15.29,-278.181 54.052,-414.059c20.307,-39.793 61.868,-107.77 105.508,-149.651c61.997,-59.498 144.094,-93.087 157.882,-98.728c47.923,-19.607 -14.092,-5.366 -65.544,-7.016c-21.16,-0.678 -159.025,-25.947 -198.161,-79.343c-91.348,-124.63 55.209,-190.498 143.416,-202.273l7.332,-2.287c3.836,-5.649 -1.527,-4.198 -9.492,-7.788Zm388.122,98.637c29.131,50.642 6.603,107.818 -53.865,141.824c-45.425,25.546 -61.953,28.409 -66.401,30.753c-18.062,9.519 36.341,53.936 38.291,56.455c7.123,9.199 29.405,37.977 108.227,97.133c121.192,90.955 249.197,120.083 272.604,125.409c201.514,45.854 323.615,11.029 409.124,-10.956c170.254,-43.773 304.963,-171.413 314.409,-180.788c10.157,-8.989 10.663,-8.323 11.442,-9.203c4.225,-4.771 47.145,-53.236 53.104,-59.387c18.516,-19.115 -13.471,-20.337 -65.325,-47.657c-51.307,-27.032 -77.337,-88.919 -60.562,-130.432c44.713,-110.649 267.911,-116.487 278.761,-120.862c22.836,-9.209 38.987,-157.728 36.408,-182.095c-1.329,-12.554 3.164,-36.336 25.884,-37.596c38.889,-2.158 53.69,-6.71 53.346,32.452c-0.158,18.028 -8.273,99.574 -8.723,101.977c-13.267,70.886 194.231,-79.253 126.374,-215.566c-23.884,-47.979 -54.194,-114.257 -196.551,-124.661c-1.7,-0.124 -1060.327,-1.111 -1080.491,0.414c-51.202,3.871 -50.799,4.002 -102.219,4.116c-63.321,0.141 -118.43,0.036 -166.564,-0.084c-10.43,-0.026 -20.533,-0.053 -30.32,-0.078c-282.081,-0.723 -302.607,-0.093 -362.904,58.056c-82.697,79.751 -68.137,227.146 62.219,290.263c46.08,22.311 16.442,-27.225 19.339,-129.949c0.137,-4.87 0.773,-27.431 58.607,-16.565c14.338,2.694 18.733,50.123 23.421,98.975c0.352,3.668 0.706,7.344 1.065,11.01c2.123,21.641 4.455,42.923 7.887,60.073c13.602,67.972 38.429,47.855 126.367,64.859c90.923,17.581 144.48,52.886 167.044,92.111Zm13.641,-646.535c4.954,-4.981 35.285,-35.475 46.941,-74.22c8.454,-28.102 11.891,-52.326 12.115,-73.282c0.614,-57.387 -22.867,-90.268 -33.408,-111.18c-42.468,-84.249 37.134,-60.343 97.165,-115.038c95.474,-86.987 69.379,-178.478 58.929,-226.964c-14.197,-65.878 27.966,-49.712 97.883,-72.897c140.013,-46.43 153.1,-196.69 126.493,-243.82c-16.316,-28.901 -141.32,-178.543 -154.014,-193.738c-21.163,-25.334 -30.214,-6.817 -62.657,20.704c-38.328,32.514 -157.786,154.495 -234.216,272.889c-84.602,131.052 -86.565,130.074 -161.586,298.721c-86.376,194.174 -118.367,506.927 -114.511,527.748c4.692,25.333 1.898,33.768 27.27,33.127c127.293,-3.217 186.825,5.811 229.585,-3.838c23.588,-5.323 42.071,-16.33 64.01,-38.211Zm119.019,-237.988c21.431,69.455 20.766,173.622 -30.14,245.512c-11.763,16.611 -26.295,33.607 6.685,34.676c43.566,1.412 1064.23,-2.089 1069.559,-4.538c5.04,-2.317 7.755,-7.642 -35.916,-59.313c-7.814,-9.245 -150.322,-186.43 -161.607,-201.304c-4.067,-5.361 -36.019,-47.474 -53.061,-65.267c-1.221,-1.274 -156.737,-195.899 -171.994,-211.94c-23.928,-25.156 -18.696,-28.825 -43.079,-54.318c-34.138,-35.694 -27.333,-40.945 -61.473,-76.786c-22.879,-24.018 -18.188,-27.323 -40.96,-51.21c-14.966,-15.698 -102.786,-140.277 -110.851,-122.241c-16.678,37.296 -24.672,126.853 -145.754,186.695c-58.166,28.747 -80.268,15.857 -75.132,52.907c16.477,118.861 -45.328,192.527 -56.289,205.591c-20.417,24.335 -19.449,24.802 -38.384,43.667c-35.782,35.62 -67.73,31.761 -54.742,68.383c1.093,3.082 2.141,6.246 3.14,9.486Zm1103.011,-166.046c-230.593,-1.556 -230.353,-3.42 -291.538,-0.421c-19.172,0.94 -7.517,15.912 115.123,164.021c12.004,14.497 11.997,26.672 181.647,25.706c30.58,-0.174 22.548,-52.377 22.494,-63.546c-0.517,-108.257 5.395,-122.882 -27.725,-125.76Zm28.034,340.835c-0.06,-24.68 1.205,-58.653 -3.831,-71.069c-3.213,-7.921 -8.068,-19.891 -106.233,-11.46c-10.771,0.925 -6.315,10.269 -5.88,11.182c6.018,12.62 98.254,125.862 99.103,126.826c23.513,26.678 16.884,-42.804 16.841,-55.478Zm-0.014,-465.935c0.191,-8.201 1.217,-52.23 -0.225,-102.535c-1.049,-36.582 -24.041,-32.042 -58.475,-32.079c-471.791,-0.505 -472.471,-0.033 -474.818,2.726c-10.641,12.509 128.878,171.606 137.288,177.319c10.682,7.255 11.59,8.982 368.243,8.796c37.624,-0.02 28.134,-33.716 27.987,-54.227Zm220.216,1868.879c-1.896,-36.062 -13.765,-261.874 -216.042,-396.339c-128.17,-85.202 -138.928,-38.121 -146.491,-30.145c-140.598,148.298 -161.055,123.925 -203.148,165.415c-31.407,30.957 44.446,166.458 104.691,228.219c177.228,181.688 427.554,152.682 433.172,151.752c38.439,-6.361 32.117,-20.846 27.818,-118.902Zm-2001.785,25.611c-0.347,49.194 -2.492,91.237 22.767,92.969c323.905,22.21 460.304,-172.46 484.49,-206.978c29.793,-42.52 81.811,-140.143 66.085,-165.749c-20.971,-34.147 -46.901,-5.742 -217.446,-181.213c-45.729,-47.049 -187.755,77.159 -193.916,83.097c-115.511,111.339 -157.252,234.347 -161.98,377.874Z" style="fill:#f06790;fill-opacity:0.99;"/><path d="M1423.491,2160.224c-23.178,23.282 -72.032,58.064 -110.791,59.825c-66.046,3 -149.884,-2.97 -194.55,-124.692c-2.709,-7.381 -18.833,-77.029 5.074,-86.865c8.481,-3.489 321.776,-4.414 331.829,1.631c18.241,10.969 10.042,102.917 -31.562,150.101Z" style="fill:#f06790;fill-opacity:0.99;"/><path d="M720.427,1776.21c-23.575,-30.689 -38.689,-84.423 -32.447,-100.658c5.397,-14.039 47.027,-12.592 51.243,-12.445c31.426,1.093 29.615,38.545 38.254,51.778c62.608,95.895 152.713,34.871 164.982,11.005c11.152,-21.693 8.119,-22.666 18.6,-44.449c2.338,-4.859 13.729,-28.534 65.128,-17.383c26.531,5.756 -1.511,75.587 -7.254,87.35c-46.028,94.287 -157.17,111.754 -243.154,70.91c-34.921,-16.588 -41.539,-31.993 -55.351,-46.108Z" style="fill:#f06890;fill-opacity:0.98;"/><path d="M1595.953,1801.771c-48.007,-47.575 -63.877,-107.406 -57.619,-126.065c4.472,-13.333 41.974,-12.559 45.769,-12.481c25.787,0.532 26.726,15.592 37.407,37.092c41.372,83.278 140.047,100.696 187.637,-9.507c10.55,-24.431 12.274,-29.952 56.661,-27.429c4.156,0.236 34.144,1.941 20.219,47.95c-15.969,52.763 -27.597,56.241 -42.379,75.841c-60.078,79.663 -199.119,62.767 -247.695,14.598Z" style="fill:#f06790;fill-opacity:0.98;"/><path d="M1237.458,1852.774c-34.353,-34.29 36,-60.199 80.208,-43.951c74.342,27.324 -12.805,81.991 -80.208,43.951Z" style="fill:#f06890;fill-opacity:0.98;"/><path d="M415.89,1892.323c7.965,3.59 13.328,2.139 9.492,7.788c-0,0 -6.746,2.104 -7.332,2.287c2.414,-5.405 0.854,-5.222 -2.16,-10.075Z" style="fill:#b84e6e;fill-opacity:0.3;"/></g></svg>